#N canvas 26 26 1920 997 12;
#X obj 13 251 bng 15 250 50 0 empty empty empty 17 7 0 10 #fcfcfc #000000 #000000;
#X obj 76 251 bng 15 250 50 0 empty empty empty 17 7 0 10 #fcfcfc #000000 #000000;
#X obj 138 251 bng 15 250 50 0 empty empty empty 17 7 0 10 #fcfcfc #000000 #000000;
#X obj 196 251 bng 15 250 50 0 empty empty empty 17 7 0 10 #fcfcfc #000000 #000000;
#X obj 256 251 bng 15 250 50 0 empty empty empty 17 7 0 10 #fcfcfc #000000 #000000;
#X obj 312 251 bng 15 250 50 0 empty empty empty 17 7 0 10 #fcfcfc #000000 #000000;
#X obj 367 251 bng 15 250 50 0 empty empty empty 17 7 0 10 #fcfcfc #000000 #000000;
#X obj 424 251 bng 15 250 50 0 empty empty empty 17 7 0 10 #fcfcfc #000000 #000000;
#X obj 481 251 bng 15 250 50 0 empty empty empty 17 7 0 10 #fcfcfc #000000 #000000;
#X obj 564 251 bng 15 250 50 0 empty empty empty 17 7 0 10 #fcfcfc #000000 #000000;
#X obj 627 251 bng 15 250 50 0 empty empty empty 17 7 0 10 #fcfcfc #000000 #000000;
#X obj 688 251 bng 15 250 50 0 empty empty empty 17 7 0 10 #fcfcfc #000000 #000000;
#X obj 749 251 bng 15 250 50 0 empty empty empty 17 7 0 10 #fcfcfc #000000 #000000;
#X obj 12 2 receive fromGUI;
#X obj 12 32 list trim;
#X obj 12 62 route /myButton1;
#X obj 12 94 tgl 15 0 empty empty empty 17 7 0 10 #fcfcfc #000000 #000000 0 1;
#X obj 65 120 s on/off;
#X obj 148 2 receive fromGUI;
#X obj 148 32 list trim;
#X obj 148 94 tgl 15 0 empty empty empty 17 7 0 10 #fcfcfc #000000 #000000 0 1;
#X obj 148 62 route /myButton2;
#X obj 280 2 receive fromGUI;
#X obj 280 32 list trim;
#X obj 280 94 tgl 15 0 empty empty empty 17 7 0 10 #fcfcfc #000000 #000000 0 1;
#X obj 280 62 route /myButton3;
#X obj 418 2 receive fromGUI;
#X obj 418 32 list trim;
#X obj 418 94 tgl 15 0 empty empty empty 17 7 0 10 #fcfcfc #000000 #000000 0 1;
#X obj 554 2 receive fromGUI;
#X obj 554 32 list trim;
#X obj 554 94 tgl 15 0 empty empty empty 17 7 0 10 #fcfcfc #000000 #000000 0 1;
#X obj 686 2 receive fromGUI;
#X obj 686 32 list trim;
#X obj 686 94 tgl 15 0 empty empty empty 17 7 0 10 #fcfcfc #000000 #000000 0 1;
#X obj 821 2 receive fromGUI;
#X obj 821 32 list trim;
#X obj 821 94 tgl 15 0 empty empty empty 17 7 0 10 #fcfcfc #000000 #000000 0 1;
#X obj 957 2 receive fromGUI;
#X obj 957 32 list trim;
#X obj 957 94 tgl 15 0 empty empty empty 17 7 0 10 #fcfcfc #000000 #000000 0 1;
#X obj 1089 2 receive fromGUI;
#X obj 1089 32 list trim;
#X obj 1089 94 tgl 15 0 empty empty empty 17 7 0 10 #fcfcfc #000000 #000000 0 1;
#X obj 1227 2 receive fromGUI;
#X obj 1227 32 list trim;
#X obj 1227 94 tgl 15 0 empty empty empty 17 7 0 10 #fcfcfc #000000 #000000 0 1;
#X obj 1363 2 receive fromGUI;
#X obj 1363 32 list trim;
#X obj 1363 94 tgl 15 0 empty empty empty 17 7 0 10 #fcfcfc #000000 #000000 0 1;
#X obj 1495 2 receive fromGUI;
#X obj 1495 32 list trim;
#X obj 1495 94 tgl 15 0 empty empty empty 17 7 0 10 #fcfcfc #000000 #000000 0 1;
#X obj 1626 2 receive fromGUI;
#X obj 1626 32 list trim;
#X obj 1626 94 tgl 15 0 empty empty empty 17 7 0 10 #fcfcfc #000000 #000000 0 1;
#X obj 418 62 route /myButton4;
#X obj 554 62 route /myButton5;
#X obj 686 62 route /myButton6;
#X obj 821 62 route /myButton7;
#X obj 957 62 route /myButton8;
#X obj 1089 62 route /myButton9;
#X obj 1227 62 route /myButton10;
#X obj 12 120 s key1;
#X obj 201 120 s on/off;
#X obj 148 120 s key2;
#X obj 333 120 s on/off;
#X obj 471 120 s on/off;
#X obj 607 120 s on/off;
#X obj 739 120 s on/off;
#X obj 874 120 s on/off;
#X obj 1010 120 s on/off;
#X obj 280 120 s key3;
#X obj 418 120 s key4;
#X obj 554 120 s key5;
#X obj 686 120 s key6;
#X obj 821 120 s key7;
#X obj 957 120 s key8;
#X obj 1142 120 s on/off;
#X obj 1286 120 s on/off;
#X obj 1421 120 s on/off;
#X obj 1554 120 s on/off;
#X obj 1687 120 s on/off;
#X obj 1089 120 s key9;
#X obj 1227 120 s key10;
#X obj 1363 120 s key11;
#X obj 1495 120 s key12;
#X obj 1626 120 s key13;
#X obj 1363 62 route /myButton11;
#X obj 1495 62 route /myButton12;
#X obj 1626 62 route /myButton13;
#X obj 13 213 r key1;
#X obj 76 213 r key2;
#X obj 138 213 r key3;
#X obj 196 213 r key4;
#X obj 256 213 r key5;
#X obj 312 213 r key6;
#X obj 367 213 r key7;
#X obj 424 213 r key8;
#X obj 481 213 r key9;
#X obj 564 213 r key10;
#X obj 627 213 r key11;
#X obj 688 213 r key12;
#X obj 749 223 r key13;
#X msg 13 325 60;
#X msg 76 325 61;
#X msg 138 325 62;
#X msg 196 325 63;
#X msg 256 325 64;
#X msg 318 326 65;
#X msg 381 325 66;
#X msg 439 325 67;
#X msg 501 325 68;
#X msg 564 325 69;
#X msg 627 325 70;
#X msg 688 325 71;
#X msg 749 325 72;
#X obj 830 190 receive fromGUI;
#X obj 830 220 list trim;
#X obj 830 304 bng 15 250 50 0 empty empty empty 17 7 0 10 #fcfcfc #000000 #000000;
#X obj 852 304 bng 15 250 50 0 empty empty empty 17 7 0 10 #fcfcfc #000000 #000000;
#X obj 873 304 bng 15 250 50 0 empty empty empty 17 7 0 10 #fcfcfc #000000 #000000;
#X msg 830 334 0.5;
#X msg 868 334 1;
#X msg 904 334 2;
#X obj 352 472 *;
#X obj 830 277 sel 0 1 2;
#X obj 830 250 route /octaveKnob;
#X text 821 162 Octave Shift Knob;
#X text 1097 237 Release Knob;
#X text 1246 236 Attack Knob;
#X obj 905 302 loadbang;
#X obj 352 431 mtof;
#X obj 352 817 *~;
#X obj 1012 319 r on/off;
#X floatatom 1121 626 5 0 0 0 - - - 0;
#X obj 1119 816 *~;
#X obj 1369 686 *~;
#X floatatom 1137 789 5 0 0 0 - - - 0;
#X floatatom 1387 655 5 0 1 1 - - - 0;
#X obj 352 786 lop~;
#X floatatom 145 698 5 0 0 0 - - - 0;
#X obj 1121 509 receive fromGUI;
#X obj 1121 533 list trim;
#X obj 145 582 receive fromGUI;
#X obj 145 612 list trim;
#X obj 145 666 * 20000;
#X obj 145 642 route /FilterKnob;
#X obj 1137 682 receive fromGUI;
#X obj 1137 712 list trim;
#X obj 1137 737 route /DelayVolumeKnob;
#X obj 1121 557 route /DelayTimeKnob;
#X obj 1121 605 + 100;
#X obj 1121 581 * 2900;
#X obj 1387 551 receive fromGUI;
#X obj 1387 575 list trim;
#X obj 1387 599 route /FeedbackKnob;
#X obj 1034 549 loadbang;
#X msg 1034 578 400;
#X obj 1301 590 loadbang;
#X msg 1301 619 0.5;
#X obj 1000 723 loadbang;
#X obj 74 630 loadbang;
#X msg 74 658 20000;
#X obj 353 898 dac~;
#X obj 1012 345 tgl 19 0 empty empty empty 0 -10 0 12 #fcfcfc #000000 #000000 0 1;
#X obj 1012 369 sel 0 1;
#X obj 1012 403 bng 19 250 50 0 empty empty empty 0 -10 0 12 #fcfcfc #000000 #000000;
#X obj 1012 451 pack f f;
#X msg 1012 485 \$1 \$2;
#X obj 1012 509 line~;
#X obj 1146 403 bng 19 250 50 0 empty empty empty 0 -10 0 12 #fcfcfc #000000 #000000;
#X obj 1146 451 pack f f;
#X obj 1111 261 loadbang;
#X floatatom 1111 315 5 0 0 0 - - - 0;
#X obj 1250 258 loadbang;
#X floatatom 1250 313 5 0 0 0 - - - 0;
#X msg 1012 427 0;
#X msg 1146 427 1;
#X msg 1111 285 1000;
#X msg 1250 282 1000;
#X obj 830 371 t b i;
#X msg 1000 752 0.2;
#X obj 1347 157 receive fromGUI;
#X obj 1347 187 list trim;
#X obj 1193 147 receive fromGUI;
#X obj 1193 177 list trim;
#X obj 1193 205 route /releaseKnob;
#X obj 1347 218 route /attackKnob;
#X obj 1193 266 * 4000;
#X obj 1193 290 + 100;
#X obj 1347 246 * 4000;
#X obj 1347 270 + 100;
#X obj 1137 761 * 0.2;
#X obj 1387 623 * 0.95;
#X obj 353 864 clip~ -0.9 0.9;
#X obj 1121 647 delread~ delayname4 0;
#X obj 859 669 delwrite~ delayname4 5000;
#X obj 885 624 receive~ feedback4;
#X obj 1368 709 send~ feedback4;
#X text 396 517 harmonicity;
#X text 722 521 mod index;
#X obj 352 725 osc~;
#X obj 468 675 *~;
#X obj 468 652 osc~ 40;
#X obj 469 615 *~;
#X obj 598 645 *~;
#X floatatom 616 566 5 0 0 0 - - - 0;
#X floatatom 487 566 5 0 0 0 - - - 0;
#X floatatom 352 544 5 0 0 0 - - - 0;
#X obj 352 696 +~;
#X obj 487 462 receive fromGUI;
#X obj 487 492 list trim;
#X obj 487 518 route /harmKnob;
#X obj 616 463 receive fromGUI;
#X obj 616 493 list trim;
#X obj 616 518 route /modKnob;
#X obj 487 542 * 20;
#X obj 616 542 * 20;
#X obj 352 842 *~ 0.2;
#X connect 0 0 104 0;
#X connect 1 0 105 0;
#X connect 2 0 106 0;
#X connect 3 0 107 0;
#X connect 4 0 108 0;
#X connect 5 0 109 0;
#X connect 6 0 110 0;
#X connect 7 0 111 0;
#X connect 8 0 112 0;
#X connect 9 0 113 0;
#X connect 10 0 114 0;
#X connect 11 0 115 0;
#X connect 12 0 116 0;
#X connect 13 0 14 0;
#X connect 14 0 15 0;
#X connect 15 0 16 0;
#X connect 16 0 17 0;
#X connect 16 0 63 0;
#X connect 18 0 19 0;
#X connect 19 0 21 0;
#X connect 20 0 64 0;
#X connect 20 0 65 0;
#X connect 21 0 20 0;
#X connect 22 0 23 0;
#X connect 23 0 25 0;
#X connect 24 0 66 0;
#X connect 24 0 72 0;
#X connect 25 0 24 0;
#X connect 26 0 27 0;
#X connect 27 0 56 0;
#X connect 28 0 67 0;
#X connect 28 0 73 0;
#X connect 29 0 30 0;
#X connect 30 0 57 0;
#X connect 31 0 68 0;
#X connect 31 0 74 0;
#X connect 32 0 33 0;
#X connect 33 0 58 0;
#X connect 34 0 69 0;
#X connect 34 0 75 0;
#X connect 35 0 36 0;
#X connect 36 0 59 0;
#X connect 37 0 70 0;
#X connect 37 0 76 0;
#X connect 38 0 39 0;
#X connect 39 0 60 0;
#X connect 40 0 71 0;
#X connect 40 0 77 0;
#X connect 41 0 42 0;
#X connect 42 0 61 0;
#X connect 43 0 78 0;
#X connect 43 0 83 0;
#X connect 44 0 45 0;
#X connect 45 0 62 0;
#X connect 46 0 79 0;
#X connect 46 0 84 0;
#X connect 47 0 48 0;
#X connect 48 0 88 0;
#X connect 49 0 80 0;
#X connect 49 0 85 0;
#X connect 50 0 51 0;
#X connect 51 0 89 0;
#X connect 52 0 81 0;
#X connect 52 0 86 0;
#X connect 53 0 54 0;
#X connect 54 0 90 0;
#X connect 55 0 82 0;
#X connect 55 0 87 0;
#X connect 56 0 28 0;
#X connect 57 0 31 0;
#X connect 58 0 34 0;
#X connect 59 0 37 0;
#X connect 60 0 40 0;
#X connect 61 0 43 0;
#X connect 62 0 46 0;
#X connect 88 0 49 0;
#X connect 89 0 52 0;
#X connect 90 0 55 0;
#X connect 91 0 0 0;
#X connect 92 0 1 0;
#X connect 93 0 2 0;
#X connect 94 0 3 0;
#X connect 95 0 4 0;
#X connect 96 0 5 0;
#X connect 97 0 6 0;
#X connect 98 0 7 0;
#X connect 99 0 8 0;
#X connect 100 0 9 0;
#X connect 101 0 10 0;
#X connect 102 0 11 0;
#X connect 103 0 12 0;
#X connect 104 0 132 0;
#X connect 105 0 132 0;
#X connect 106 0 132 0;
#X connect 107 0 132 0;
#X connect 108 0 132 0;
#X connect 109 0 132 0;
#X connect 110 0 132 0;
#X connect 111 0 132 0;
#X connect 112 0 132 0;
#X connect 113 0 132 0;
#X connect 114 0 132 0;
#X connect 115 0 132 0;
#X connect 116 0 132 0;
#X connect 117 0 118 0;
#X connect 118 0 127 0;
#X connect 119 0 122 0;
#X connect 120 0 123 0;
#X connect 121 0 124 0;
#X connect 122 0 181 0;
#X connect 123 0 181 0;
#X connect 124 0 181 0;
#X connect 125 0 209 0;
#X connect 126 0 119 0;
#X connect 126 1 120 0;
#X connect 126 2 121 0;
#X connect 127 0 126 0;
#X connect 131 0 123 0;
#X connect 132 0 125 0;
#X connect 133 0 197 0;
#X connect 133 0 219 0;
#X connect 134 0 165 0;
#X connect 135 0 196 0;
#X connect 136 0 195 0;
#X connect 137 0 199 0;
#X connect 138 0 136 1;
#X connect 139 0 137 1;
#X connect 140 0 133 0;
#X connect 141 0 140 1;
#X connect 142 0 143 0;
#X connect 143 0 151 0;
#X connect 144 0 145 0;
#X connect 145 0 147 0;
#X connect 146 0 141 0;
#X connect 147 0 146 0;
#X connect 148 0 149 0;
#X connect 149 0 150 0;
#X connect 150 0 193 0;
#X connect 151 0 153 0;
#X connect 152 0 135 0;
#X connect 153 0 152 0;
#X connect 154 0 155 0;
#X connect 155 0 156 0;
#X connect 156 0 194 0;
#X connect 157 0 158 0;
#X connect 158 0 135 0;
#X connect 159 0 160 0;
#X connect 160 0 139 0;
#X connect 161 0 182 0;
#X connect 162 0 163 0;
#X connect 163 0 141 0;
#X connect 165 0 166 0;
#X connect 166 0 167 0;
#X connect 166 1 171 0;
#X connect 167 0 177 0;
#X connect 168 0 169 0;
#X connect 169 0 170 0;
#X connect 170 0 133 1;
#X connect 171 0 178 0;
#X connect 172 0 169 0;
#X connect 173 0 179 0;
#X connect 174 0 168 1;
#X connect 175 0 180 0;
#X connect 176 0 172 1;
#X connect 177 0 168 0;
#X connect 178 0 172 0;
#X connect 179 0 174 0;
#X connect 180 0 176 0;
#X connect 181 0 125 0;
#X connect 181 1 125 1;
#X connect 182 0 138 0;
#X connect 183 0 184 0;
#X connect 184 0 188 0;
#X connect 185 0 186 0;
#X connect 186 0 187 0;
#X connect 187 0 189 0;
#X connect 188 0 191 0;
#X connect 189 0 190 0;
#X connect 190 0 174 0;
#X connect 191 0 192 0;
#X connect 192 0 176 0;
#X connect 193 0 138 0;
#X connect 194 0 139 0;
#X connect 195 0 164 0;
#X connect 195 0 164 1;
#X connect 196 0 136 0;
#X connect 196 0 137 0;
#X connect 198 0 197 0;
#X connect 202 0 140 0;
#X connect 203 0 210 1;
#X connect 204 0 203 0;
#X connect 205 0 204 0;
#X connect 205 0 206 0;
#X connect 206 0 203 1;
#X connect 207 0 206 1;
#X connect 208 0 205 1;
#X connect 209 0 205 0;
#X connect 209 0 210 0;
#X connect 210 0 202 0;
#X connect 211 0 212 0;
#X connect 212 0 213 0;
#X connect 213 0 217 0;
#X connect 214 0 215 0;
#X connect 215 0 216 0;
#X connect 216 0 218 0;
#X connect 217 0 208 0;
#X connect 218 0 207 0;
#X connect 219 0 195 0;
